# xmcd
#
# Track frame offsets: 
#        150
#        19215
#        40397
#        56947
#        78657
#        95055
#        107970
#        137557
#        152057
#        171042
#        186915
#        200932
#
# Disc length: 2866 seconds
#
# Revision: 0
# Processed by: cddbd v1.5.2PL0 Copyright (c) Steve Scherf et al.
# Submitted via: ExactAudioCopy v0.99pb1
#
DISCID=b20b300c
DTITLE=The Kilborn Alley Blues Band - Tear Chicago Down
DYEAR=1900
DGENRE=Blues
TTITLE0=I'm Spent
TTITLE1=Christmas In County
TTITLE2=Fire With Fire
TTITLE3=Crazier Things
TTITLE4=Come Home Soon
TTITLE5=Redneck In A Soul Band
TTITLE6=It's A Pity
TTITLE7=Tear Chicago Down
TTITLE8=The Weight On You
TTITLE9=Lay It Down
TTITLE10=She Don't Know
TTITLE11=Redneck In A Soul Band(alt)
EXTD=
EXTT0=
EXTT1=
EXTT2=
EXTT3=
EXTT4=
EXTT5=
EXTT6=
EXTT7=
EXTT8=
EXTT9=
EXTT10=
EXTT11=
PLAYORDER=
